<mxfile host="app.diagrams.net" modified="2023-05-17T01:57:54.921Z" agent="Mozilla/5.0 (Windows NT 10.0; Win64; x64) AppleWebKit/537.36 (KHTML, like Gecko) Chrome/113.0.0.0 Safari/537.36" etag="7fZ16suT8DQyA4RbjKmG" version="21.1.8" type="github">
  <diagram name="Page-1" id="G9wbMJnJf9LOHqo55jOl">
    <mxGraphModel dx="1695" dy="880" grid="1" gridSize="10" guides="1" tooltips="1" connect="1" arrows="1" fold="1" page="1" pageScale="1" pageWidth="827" pageHeight="1169" math="0" shadow="0">
      <root>
        <mxCell id="0" />
        <mxCell id="1" parent="0" />
        <mxCell id="iX05nGtm6DSxZUYa77Ja-9" style="edgeStyle=orthogonalEdgeStyle;rounded=0;orthogonalLoop=1;jettySize=auto;html=1;" edge="1" parent="1" source="iX05nGtm6DSxZUYa77Ja-1" target="iX05nGtm6DSxZUYa77Ja-2">
          <mxGeometry relative="1" as="geometry" />
        </mxCell>
        <mxCell id="iX05nGtm6DSxZUYa77Ja-1" value="Integerizating the weights to init the pools" style="rounded=0;whiteSpace=wrap;html=1;" vertex="1" parent="1">
          <mxGeometry x="270" y="160" width="120" height="60" as="geometry" />
        </mxCell>
        <mxCell id="iX05nGtm6DSxZUYa77Ja-10" style="edgeStyle=orthogonalEdgeStyle;rounded=0;orthogonalLoop=1;jettySize=auto;html=1;" edge="1" parent="1" source="iX05nGtm6DSxZUYa77Ja-2" target="iX05nGtm6DSxZUYa77Ja-4">
          <mxGeometry relative="1" as="geometry" />
        </mxCell>
        <mxCell id="iX05nGtm6DSxZUYa77Ja-2" value="Learn 2 BNs: HH and P" style="rounded=0;whiteSpace=wrap;html=1;" vertex="1" parent="1">
          <mxGeometry x="270" y="290" width="120" height="60" as="geometry" />
        </mxCell>
        <mxCell id="iX05nGtm6DSxZUYa77Ja-11" style="edgeStyle=orthogonalEdgeStyle;rounded=0;orthogonalLoop=1;jettySize=auto;html=1;" edge="1" parent="1" source="iX05nGtm6DSxZUYa77Ja-4" target="iX05nGtm6DSxZUYa77Ja-5">
          <mxGeometry relative="1" as="geometry" />
        </mxCell>
        <mxCell id="iX05nGtm6DSxZUYa77Ja-4" value="Rejection sample zone by zone to connect with census" style="rounded=0;whiteSpace=wrap;html=1;" vertex="1" parent="1">
          <mxGeometry x="270" y="410" width="120" height="60" as="geometry" />
        </mxCell>
        <mxCell id="iX05nGtm6DSxZUYa77Ja-12" style="edgeStyle=orthogonalEdgeStyle;rounded=0;orthogonalLoop=1;jettySize=auto;html=1;" edge="1" parent="1" source="iX05nGtm6DSxZUYa77Ja-5" target="iX05nGtm6DSxZUYa77Ja-6">
          <mxGeometry relative="1" as="geometry" />
        </mxCell>
        <mxCell id="iX05nGtm6DSxZUYa77Ja-5" value="Clustering the P, each cluster should have 1 from sample" style="rounded=0;whiteSpace=wrap;html=1;" vertex="1" parent="1">
          <mxGeometry x="270" y="540" width="120" height="60" as="geometry" />
        </mxCell>
        <mxCell id="iX05nGtm6DSxZUYa77Ja-13" style="edgeStyle=orthogonalEdgeStyle;rounded=0;orthogonalLoop=1;jettySize=auto;html=1;" edge="1" parent="1" source="iX05nGtm6DSxZUYa77Ja-6" target="iX05nGtm6DSxZUYa77Ja-7">
          <mxGeometry relative="1" as="geometry" />
        </mxCell>
        <mxCell id="iX05nGtm6DSxZUYa77Ja-6" value="Deep Learning to match HH atts with the cluster" style="rounded=0;whiteSpace=wrap;html=1;" vertex="1" parent="1">
          <mxGeometry x="270" y="660" width="120" height="60" as="geometry" />
        </mxCell>
        <mxCell id="iX05nGtm6DSxZUYa77Ja-14" style="edgeStyle=orthogonalEdgeStyle;rounded=0;orthogonalLoop=1;jettySize=auto;html=1;" edge="1" parent="1" source="iX05nGtm6DSxZUYa77Ja-7" target="iX05nGtm6DSxZUYa77Ja-8">
          <mxGeometry relative="1" as="geometry" />
        </mxCell>
        <mxCell id="iX05nGtm6DSxZUYa77Ja-7" value="Select HH based on the sample" style="rounded=0;whiteSpace=wrap;html=1;" vertex="1" parent="1">
          <mxGeometry x="270" y="770" width="120" height="60" as="geometry" />
        </mxCell>
        <mxCell id="iX05nGtm6DSxZUYa77Ja-8" value="Finish when random selection, removal or resampling" style="rounded=0;whiteSpace=wrap;html=1;" vertex="1" parent="1">
          <mxGeometry x="270" y="880" width="120" height="60" as="geometry" />
        </mxCell>
        <mxCell id="iX05nGtm6DSxZUYa77Ja-21" style="edgeStyle=orthogonalEdgeStyle;rounded=0;orthogonalLoop=1;jettySize=auto;html=1;" edge="1" parent="1" source="iX05nGtm6DSxZUYa77Ja-15" target="iX05nGtm6DSxZUYa77Ja-16">
          <mxGeometry relative="1" as="geometry" />
        </mxCell>
        <mxCell id="iX05nGtm6DSxZUYa77Ja-15" value="Sample to full fill the number" style="rounded=0;whiteSpace=wrap;html=1;" vertex="1" parent="1">
          <mxGeometry x="100" y="1330" width="120" height="60" as="geometry" />
        </mxCell>
        <mxCell id="iX05nGtm6DSxZUYa77Ja-22" style="edgeStyle=orthogonalEdgeStyle;rounded=0;orthogonalLoop=1;jettySize=auto;html=1;entryX=0.5;entryY=0;entryDx=0;entryDy=0;" edge="1" parent="1" source="iX05nGtm6DSxZUYa77Ja-16" target="iX05nGtm6DSxZUYa77Ja-17">
          <mxGeometry relative="1" as="geometry" />
        </mxCell>
        <mxCell id="iX05nGtm6DSxZUYa77Ja-16" value="Check the error rate (mismatch with census) for each att group" style="rounded=0;whiteSpace=wrap;html=1;" vertex="1" parent="1">
          <mxGeometry x="100" y="1460" width="120" height="60" as="geometry" />
        </mxCell>
        <mxCell id="iX05nGtm6DSxZUYa77Ja-23" style="edgeStyle=orthogonalEdgeStyle;rounded=0;orthogonalLoop=1;jettySize=auto;html=1;" edge="1" parent="1" source="iX05nGtm6DSxZUYa77Ja-17" target="iX05nGtm6DSxZUYa77Ja-18">
          <mxGeometry relative="1" as="geometry" />
        </mxCell>
        <mxCell id="iX05nGtm6DSxZUYa77Ja-17" value="Select the att group with highest error, remove the redundant and determine the missing" style="rounded=0;whiteSpace=wrap;html=1;" vertex="1" parent="1">
          <mxGeometry x="65" y="1570" width="190" height="120" as="geometry" />
        </mxCell>
        <mxCell id="iX05nGtm6DSxZUYa77Ja-19" style="edgeStyle=orthogonalEdgeStyle;rounded=0;orthogonalLoop=1;jettySize=auto;html=1;entryX=1;entryY=0.5;entryDx=0;entryDy=0;" edge="1" parent="1" source="iX05nGtm6DSxZUYa77Ja-18" target="iX05nGtm6DSxZUYa77Ja-15">
          <mxGeometry relative="1" as="geometry">
            <Array as="points">
              <mxPoint x="390" y="1769.9999999999995" />
              <mxPoint x="390" y="1360" />
            </Array>
          </mxGeometry>
        </mxCell>
        <mxCell id="iX05nGtm6DSxZUYa77Ja-20" value="Resampling" style="edgeLabel;html=1;align=center;verticalAlign=middle;resizable=0;points=[];" vertex="1" connectable="0" parent="iX05nGtm6DSxZUYa77Ja-19">
          <mxGeometry x="0.1123" y="-2" relative="1" as="geometry">
            <mxPoint as="offset" />
          </mxGeometry>
        </mxCell>
        <mxCell id="iX05nGtm6DSxZUYa77Ja-18" value="Add extra evidence for rejection sampling" style="rounded=0;whiteSpace=wrap;html=1;" vertex="1" parent="1">
          <mxGeometry x="100" y="1740" width="120" height="60" as="geometry" />
        </mxCell>
      </root>
    </mxGraphModel>
  </diagram>
</mxfile>
